<?xml version="1.0" encoding="utf-8"?>
<!-- Generator: Adobe Illustrator 21.1.0, SVG Export Plug-In . SVG Version: 6.00 Build 0)  -->
<svg version="1.1" id="Layer_1" xmlns="http://www.w3.org/2000/svg" xmlns:xlink="http://www.w3.org/1999/xlink" x="0px" y="0px"
	 viewBox="0 0 221.7 191.1" style="enable-background:new 0 0 221.7 191.1;" xml:space="preserve">
<g>
	<g>
		<path d="M128.6,137.3c-22,0-39.9-17.9-39.9-39.9c0-22,17.9-39.9,39.9-39.9c14.4,0,27.1,7.7,34.1,19.2h20.8
			c-8.4-22.2-29.8-38-54.9-38c-12.8,0-24.6,4.2-34.2,11.1L44.5,0l-5.1,5.1c-0.6,0.4-1.2,0.8-1.7,1.3c-1.3,1.3-2.5,2.7-3.7,4.1
			l-2.8,2.8l0.1,0.1C11.1,36.8,0,66.2,0,97.4c0,34.4,13.4,66.7,37.7,91c1.8,1.8,4.2,2.8,6.6,2.8c2.4,0,4.8-0.9,6.7-2.8
			c3.7-3.7,3.7-9.6,0-13.3c-20.8-20.7-32.2-48.3-32.2-77.7c0-26.2,9.1-50.9,25.9-70.7l11.9,11.9c-13.1,16-21,36.5-21,58.8
			c0,51.3,41.8,93.1,93.1,93.1c5.2,0,9.4-4.2,9.4-9.4c0-5.2-4.2-9.4-9.4-9.4c-41,0-74.3-33.3-74.3-74.3c0-17.1,5.9-32.8,15.6-45.4
			l11.1,11.1C74.1,72.8,70,84.6,70,97.4c0,32.3,26.3,58.7,58.7,58.7c25.1,0,46.5-15.8,54.9-38h-20.8
			C155.7,129.6,143.1,137.3,128.6,137.3z"/>
		<g>
			<path d="M221.7,97.4c0-51.3-41.8-93.1-93.1-93.1c-20.6,0-39.6,6.7-55.1,18.1l13.5,13.5c11.9-8,26.2-12.8,41.6-12.8
				c37.8,0,69.1,28.3,73.7,64.9h-51.7c-3.7-8.5-12.1-14.5-22-14.5c-13.2,0-23.9,10.7-23.9,23.9c0,13.2,10.7,23.9,23.9,23.9
				c9.9,0,18.3-6,22-14.5h71.1V97.4z"/>
		</g>
	</g>
</g>
</svg>
